<?xml version="1.0" encoding="utf-8"?>
<!-- Generator: Adobe Illustrator 19.0.0, SVG Export Plug-In . SVG Version: 6.00 Build 0)  -->
<svg version="1.1" id="Layer_1" xmlns="http://www.w3.org/2000/svg" xmlns:xlink="http://www.w3.org/1999/xlink" x="0px" y="0px"
	 viewBox="0 0 500 500" style="enable-background:new 0 0 500 500;" xml:space="preserve">
<style type="text/css">
	.st0{fill:#E6E6E6;}
	.st1{fill:#96CEB4;}
	.st2{fill:#FFCC5C;}
	.st3{fill:#82D379;}
	.st4{fill:#FFEEAD;}
	.st5{fill:#FF6F69;}
</style>
<g id="XMLID_1_">
	<g id="XMLID_14_">
		<path id="XMLID_30_" class="st0" d="M250,25C125.7,25,25,125.7,25,250s100.7,225,225,225s225-100.7,225-225S374.3,25,250,25z
			 M362.6,219.2l-18.4,111.3c-1.7,10-9.7,17.8-19.8,19.1l-113,14.3c-9.8,1.2-19.3-3.9-23.6-12.9l-46.5-96.6c-4.2-8.7-2.5-19,4.2-26
			l75.8-78.7c6.9-7.2,17.7-9.1,26.7-4.7L350,194.8C359.1,199.3,364.3,209.2,362.6,219.2z"/>
	</g>
	<path id="XMLID_49_" class="st1" d="M149.1,63.1c78.2-44.4,187.4-29.8,244.7,29.7c4.2,4.3,6.4,14.2,4.6,19.9
		c-7.3,22.5-16.6,44.4-26.5,70.2C297.8,143.1,225.3,104.1,149.1,63.1z"/>
	<path id="XMLID_47_" class="st2" d="M225.7,461.4c-43.4-3.1-77.4-19.2-107.6-43.1C83.1,390.6,57.8,355.6,45.9,312
		c-1.2-4.5-0.4-12.7,2.6-14.9c22.4-16,45.5-30.8,70.9-47.7C154.8,319.9,189.2,388.7,225.7,461.4z"/>
	<path id="XMLID_48_" class="st3" d="M221,125c-58.4,56-108.4,118.8-182,157.3c-9.9-67.3,8.2-125.6,52.5-175.2
		c36.4-40.8,37.4-40,83.3-11.6C189.8,104.8,204.5,114.5,221,125z"/>
	<path id="XMLID_46_" class="st4" d="M364.3,346.7c15.5-77.6,16.2-155.4,53.6-227.6c19.4,21.4,30.1,46.3,37.6,72.3
		c12.9,44.9,11.7,89.8-5.7,133.7c-1.9,4.8-5.4,11.9-9.1,12.4C416.1,341.3,391.2,343.7,364.3,346.7z"/>
	<path id="XMLID_45_" class="st5" d="M205.4,386.4C282.9,375,358,363.9,436,352.4c-13.8,29-32.9,49.2-55,66.4
		c-37.4,29.2-80.5,43.8-127.8,44.9c-5.8,0.1-14.8-3.9-17.1-8.6C225.3,433.8,216.5,411.6,205.4,386.4z"/>
</g>
</svg>
