<?xml version="1.0" encoding="utf-8"?>
<!-- Generator: Adobe Illustrator 19.0.0, SVG Export Plug-In . SVG Version: 6.00 Build 0)  -->
<svg version="1.1" id="Layer_1" xmlns="http://www.w3.org/2000/svg" xmlns:xlink="http://www.w3.org/1999/xlink" x="0px" y="0px"
	 viewBox="0 0 500 500" style="enable-background:new 0 0 500 500;" xml:space="preserve">
<g id="XMLID_8_">
	<path id="XMLID_28_" d="M186.1,230.8c-1,0-1.7-0.3-2.3-0.8c-0.5-0.5-0.8-1.3-0.8-2.3V218h6v-5h-6v-6h-8v6h-3v5h3v9.7
		c0,2.8,1.3,5,2.9,6.4c1.6,1.5,4.1,2.2,6.9,2.2c1.1,0,2.3-0.1,3.3-0.4c1-0.3,1.9-0.6,2.6-1.1l-1.8-4.9
		C188.1,230.5,187.2,230.8,186.1,230.8z"/>
	<path id="XMLID_29_" d="M201,224.1c0-2.1,0.9-3.8,1.9-4.8c1-1.1,2.6-1.6,4.4-1.6c1.6,0,2.2,0.5,3,1.4c0.8,0.9,0.7,2.4,0.7,4.3V236
		h8v-13.8c0-3.5-0.8-6.2-2.6-8c-1.8-1.8-4.2-2.7-7.1-2.7c-1.5,0-3.3,0.2-4.6,0.7c-1.3,0.5-2.7,1.2-3.7,2.1V204h-7v32h7V224.1z"/>
	<path id="XMLID_30_" d="M212.2,244.7c2.4,0,4.2,1.1,5.4,3.3l5.4-2.9c-0.9-2-2.2-3.5-4.1-4.5c-1.9-1.1-4.1-1.6-6.6-1.6
		c-2.6,0-4.9,0.5-6.9,1.6c-2,1.1-3.6,2.5-4.8,4.4c-1.1,1.9-1.7,4-1.7,6.4c0,2.4,0.6,4.5,1.7,6.4c1.1,1.9,2.7,3.3,4.8,4.4
		c2,1.1,4.3,1.6,6.9,1.6c2.5,0,4.7-0.5,6.6-1.6c1.9-1.1,3.3-2.6,4.1-4.5l-5.4-2.9c-1.2,2.2-3,3.3-5.4,3.3c-1.8,0-3.3-0.6-4.5-1.8
		c-1.2-1.2-1.8-2.8-1.8-4.9c0-2.1,0.6-3.7,1.8-4.9C208.9,245.2,210.4,244.7,212.2,244.7z"/>
	<path id="XMLID_33_" d="M240,260.3v3.7h7v-14.4c0-3.6-0.4-6.2-2.4-8c-2-1.8-4.5-2.7-8.3-2.7c-1.9,0-3.7,0.3-5.5,0.8
		c-1.8,0.5-3.3,1.2-4.6,2.1l2.5,4.9c0.9-0.7,1.9-1.2,3.2-1.6c1.2-0.4,2.5-0.6,3.8-0.6c1.8,0,3.2,0.8,4.2,1.6
		c0.9,0.8,1.4,1.9,1.4,3.9h-5.5c-3.5,0-6.1,0.2-7.8,1.5c-1.7,1.3-2.5,2.8-2.5,5.1c0,1.4,0.4,2.6,1.1,3.7c0.7,1.1,1.7,1.9,3.1,2.5
		c1.4,0.6,2.1,0.9,3.9,0.9C237.1,263.7,239,262.6,240,260.3z M238.7,258.2c-0.9,0.5-1.7,0.8-2.8,0.8c-1.2,0-2-0.3-2.7-0.8
		c-0.7-0.5-1-0.9-1-1.8c0-1.9,1.5-2.5,4.4-2.5h3.5v1.7C240,256.8,239.6,257.6,238.7,258.2z"/>
	<path id="XMLID_36_" d="M237,236.4c1.9,0,3.8-0.3,5.6-0.8c1.8-0.5,3.4-1.2,4.7-2.1l-2.5-4.9c-0.9,0.7-1.9,1.2-3.2,1.6
		c-1.2,0.4-2.5,0.6-3.8,0.6c-1.8,0-3.2-0.5-4.2-1.3c-0.9-0.8-1.4-1.5-1.4-3.5h5.5c3.5,0,6.1-0.6,7.8-1.9c1.7-1.3,2.5-3,2.5-5.3
		c0-1.4-0.4-2.6-1.1-3.7c-0.7-1.1-1.7-2-3.1-2.6c-1.4-0.6-2.9-0.9-4.8-0.9c-3.6,0-6.3,1.1-7.3,3.4v-2h-7v12.7c0,3.6,1.2,6.2,3.2,8
		C230.2,235.5,233.3,236.4,237,236.4z M232,219.6c0-1.1,1.3-1.9,2.2-2.4c0.9-0.5,2.1-0.8,3.3-0.8c1.2,0,2.2,0.3,2.9,0.8
		c0.7,0.5,1.1,1.2,1.1,2.1c0,1.9-1.4,2.8-4.3,2.8H232V219.6z"/>
	<path id="XMLID_37_" d="M285.4,238.9c-1.8,0-3.4,0.3-4.9,1c-1.5,0.7-2.7,1.7-3.7,2.9c-0.8-1.3-1.9-2.3-3.3-2.9
		c-1.4-0.7-2.9-1-4.6-1c-1.5,0-2.6,0.3-3.9,0.8c-1.3,0.5-2.9,1.3-2.9,2.3V239h-8v25h8v-12.7c0-2.1,0.2-3.7,1.2-4.7
		c1-1.1,1.4-1.6,3-1.6c3,0,3.8,1.9,3.8,5.7V264h8v-12.7c0-2.1,0.6-3.7,1.6-4.7c1-1.1,2.3-1.6,4-1.6c1.5,0,2.5,0.5,3.3,1.4
		c0.8,0.9,1.1,2.4,1.1,4.3v6.6l0,0V295h7v-31.3l0,0v-14.1c0-3.5-0.8-6.2-2.6-8C290.7,239.8,288.4,238.9,285.4,238.9z"/>
	<path id="XMLID_38_" d="M252,290.6c-1,0-1.7-0.3-2.2-0.8c-0.5-0.5-0.8-1.3-0.8-2.3V278h5v-6h-5v-6h-7v6h-4v6h4v9.5
		c0,2.8,0.8,5,2.4,6.4c1.6,1.5,3.8,2.2,6.6,2.2c1.1,0,2.2-0.1,3.2-0.4c1-0.3,1.8-0.6,2.5-1.1l-1.9-4.9
		C254,290.3,253.1,290.6,252,290.6z"/>
	<path id="XMLID_41_" d="M270.3,271.3c-1.9,0-3.8,0.3-5.6,0.8c-1.8,0.5-3.4,1.2-4.7,2.1l2.5,4.9c0.9-0.7,1.9-1.2,3.2-1.6
		c1.2-0.4,2.5-0.6,3.8-0.6c1.8,0,3.2,0.1,4.2,0.9c0.9,0.8,1.4,2.2,1.4,3.2h-5.5c-3.5,0-6.1,0.9-7.8,2.2c-1.7,1.3-2.5,3.2-2.5,5.4
		c0,1.4,0.4,2.7,1.1,3.8c0.7,1.1,1.7,2,3.1,2.6s3.3,1,5.1,1c3.6,0,5.6-1.1,7.6-3.3v2.3h5v-13c0-3.6-0.5-6.2-2.5-8
		C276.5,272.2,274,271.3,270.3,271.3z M274,288.1c0,1.1-0.6,1.9-1.5,2.4c-0.9,0.5-1.7,0.8-2.9,0.8c-1.2,0-2.1-0.3-2.8-0.8
		c-0.7-0.5-1-1.1-1-2c0-1.9,1.5-2.7,4.3-2.7h3.9V288.1z"/>
	<polygon id="XMLID_42_" points="317.1,281.2 327.1,271 318.8,271 308,281.3 308,262 301,262 301,295 308,295 308,289.6 
		311.7,285.9 319.6,295 328,295 	"/>
</g>
</svg>
